<svg width="32" height="32" viewBox="0 0 32 32" fill="none" xmlns="http://www.w3.org/2000/svg">
    <g clip-path="url(#lxlhj2snda)" fill="#fff">
        <path d="M30.317 21.102h-10.62a1.054 1.054 0 1 1 0-2.108h10.62a1.054 1.054 0 0 1 0 2.108z"/>
        <path d="M17.142 23.657a3.612 3.612 0 0 1-3.608-3.608 3.612 3.612 0 0 1 3.608-3.609 3.612 3.612 0 0 1 3.608 3.609 3.612 3.612 0 0 1-3.608 3.608zm0-5.11a1.502 1.502 0 0 0 0 3.001c.827.001 1.5-.672 1.5-1.5 0-.827-.673-1.5-1.5-1.5z"/>
        <path d="M14.587 21.102H1.647a1.054 1.054 0 1 1 0-2.108h12.94a1.054 1.054 0 1 1 0 2.108zM30.318 12.97h-20.3a1.054 1.054 0 1 1 0-2.108h20.3a1.054 1.054 0 1 1 0 2.108z"/>
        <path d="M7.464 15.524a3.612 3.612 0 0 1-3.608-3.608 3.612 3.612 0 0 1 3.608-3.608 3.612 3.612 0 0 1 3.608 3.608 3.613 3.613 0 0 1-3.608 3.608zm0-5.109c-.827 0-1.5.674-1.5 1.501 0 .828.673 1.5 1.5 1.5.828 0 1.501-.672 1.501-1.5s-.674-1.5-1.5-1.5z"/>
        <path d="M4.91 12.97H1.647a1.054 1.054 0 1 1 0-2.108H4.91a1.054 1.054 0 1 1 0 2.108zM20.42 4.838H1.648a1.054 1.054 0 1 1 0-2.108H20.42a1.054 1.054 0 1 1 0 2.108z"/>
        <path d="M22.975 7.393a3.612 3.612 0 0 1-3.608-3.609A3.612 3.612 0 0 1 22.975.176a3.612 3.612 0 0 1 3.608 3.608 3.612 3.612 0 0 1-3.608 3.609zm0-5.11c-.827 0-1.5.674-1.5 1.501 0 .828.673 1.501 1.5 1.501s1.5-.673 1.5-1.5c0-.828-.672-1.502-1.5-1.502z"/>
        <path d="M30.318 4.838H25.53a1.054 1.054 0 1 1 0-2.108h4.788a1.054 1.054 0 1 1 0 2.108zM30.318 29.235h-20.3a1.054 1.054 0 0 1 0-2.108h20.3a1.054 1.054 0 1 1 0 2.108z"/>
        <path d="M7.464 31.789a3.612 3.612 0 0 1-3.608-3.608 3.612 3.612 0 0 1 3.608-3.609 3.612 3.612 0 0 1 3.608 3.609 3.613 3.613 0 0 1-3.608 3.608zm0-5.11c-.827 0-1.5.674-1.5 1.501 0 .828.673 1.5 1.5 1.5.828 0 1.501-.672 1.501-1.5 0-.827-.674-1.5-1.5-1.5z"/>
        <path d="M4.91 29.235H1.647a1.054 1.054 0 1 1 0-2.108H4.91a1.054 1.054 0 1 1 0 2.108z"/>
    </g>
    <defs>
        <clipPath id="lxlhj2snda">
            <path fill="#fff" d="M0 0h32v32H0z"/>
        </clipPath>
    </defs>
</svg>
